<svg width="34" height="43" viewBox="0 0 34 43" fill="none" xmlns="http://www.w3.org/2000/svg">
<g clip-path="url(#clip0_232_91)">
<g clip-path="url(#clip1_232_91)">
<g clip-path="url(#clip2_232_91)">
<path d="M33.2246 25.5983V16.8891C33.2246 8.09653 26.0968 0.96875 17.3043 0.96875C8.51169 0.96875 1.3839 8.09653 1.3839 16.8891V25.5983C1.3839 34.3908 8.51169 41.5186 17.3043 41.5186C26.0968 41.5186 33.2246 34.3908 33.2246 25.5983Z" stroke="#333333" stroke-width="1.54408"/>
<path d="M18.2991 12.5474C18.2991 12.121 17.9535 11.7754 17.5271 11.7754C17.1007 11.7754 16.7551 12.121 16.7551 12.5474H18.2991ZM16.9812 30.5115C17.2827 30.813 17.7715 30.813 18.073 30.5115L22.9863 25.5982C23.2877 25.2968 23.2877 24.8079 22.9863 24.5064C22.6848 24.2049 22.1959 24.2049 21.8944 24.5064L17.5271 28.8737L13.1597 24.5064C12.8583 24.2049 12.3695 24.2049 12.0679 24.5064C11.7664 24.8079 11.7664 25.2968 12.0679 25.5982L16.9812 30.5115ZM16.7551 12.5474V29.9655H18.2991V12.5474H16.7551Z" fill="#A75EFF"/>
</g>
</g>
</g>
<defs>
<clipPath id="clip0_232_91">
<rect width="33.3913" height="42.0939" fill="white" transform="translate(0.608398 0.195312)"/>
</clipPath>
<clipPath id="clip1_232_91">
<rect width="33.3913" height="42.0939" fill="white" transform="translate(0.608398 0.195312)"/>
</clipPath>
<clipPath id="clip2_232_91">
<rect width="33.3848" height="42.0939" fill="white" transform="translate(0.611328 0.195312)"/>
</clipPath>
</defs>
</svg>
