<svg width="45" height="45" viewBox="0 0 45 45" fill="none" xmlns="http://www.w3.org/2000/svg">
<path d="M18.8191 37.8537C12.5083 39.9831 7.25019 37.8537 4.0957 31.2871" stroke="white" stroke-width="2.76064" stroke-linecap="round" stroke-linejoin="round"/>
<path d="M18.8193 40.4891V34.5225C18.8193 33.4219 19.158 32.4649 19.7027 31.5999C20.0782 31.0073 19.8205 30.1644 19.1451 29.9803C13.5447 28.438 9.61719 25.9627 9.61719 17.7507C9.61719 15.6158 10.3165 13.6097 11.546 11.8613C11.8515 11.427 12.0061 11.2098 12.0429 11.0147C12.0797 10.816 12.0153 10.5601 11.8864 10.0448C11.3656 7.95411 11.4006 5.73271 12.1809 3.73217C12.1809 3.73217 13.795 3.20397 17.4703 5.49898C18.3095 6.0235 18.7291 6.28668 19.0991 6.34557C19.469 6.40447 19.9622 6.28116 20.9487 6.03454C22.3591 5.68485 23.8077 5.51236 25.2608 5.52106C26.7139 5.51486 28.1622 5.68794 29.5729 6.03638C30.5594 6.283 31.0545 6.40447 31.4244 6.34741C31.7925 6.28852 32.2121 6.02534 33.0513 5.50082C36.7267 3.20581 38.3407 3.73401 38.3407 3.73401C39.1211 5.73455 39.156 7.95595 38.6352 10.0467C38.5063 10.562 38.4438 10.8196 38.4806 11.0147C38.5174 11.2098 38.6701 11.4288 38.9757 11.8632C40.2051 13.6116 40.9044 15.6176 40.9044 17.7525C40.9044 25.9645 36.977 28.4399 31.3765 29.9785C30.7011 30.1644 30.4434 31.0073 30.8189 31.5981C31.3637 32.4631 31.7023 33.4201 31.7023 34.5225V40.4891" stroke="white" stroke-width="2.76064" stroke-linecap="round" stroke-linejoin="round"/>
</svg>
