<svg width="184" height="39" viewBox="0 0 184 39" fill="none" xmlns="http://www.w3.org/2000/svg">
<path d="M9.93648 9.03339H19.7075L27.3056 16.4281V0.740234H8.60229C3.85137 0.740234 0 4.59148 0 9.34252V29.7524C0 34.5034 3.85143 38.3547 8.60229 38.3547H9.93648V9.03339Z" fill="#A75EFF"/>
<path d="M38.4104 0.740234H37.0761V30.0615H27.3051L19.707 22.6668V38.3547H38.4104C43.1613 38.3547 47.0127 34.5034 47.0127 29.7524V9.34258C47.0127 4.59154 43.1613 0.740234 38.4104 0.740234Z" fill="#A75EFF"/>
<path d="M0 22.5942H9.93648V9.0332H7.1098C3.18313 9.0332 0 12.2165 0 16.1429V22.5942Z" fill="url(#paint0_linear_32_1506)"/>
<path d="M47.0128 16.5H37.0762V30.061H39.9029C43.8295 30.061 47.0128 26.8778 47.0128 22.9513V16.5Z" fill="url(#paint1_linear_32_1506)"/>
<path d="M71.2494 20.0874V9.24689L75.7336 13.7311V26.623H71.44L62.281 17.4641V28.3046L57.7969 23.8204V10.9285H62.0905L71.2494 20.0874ZM82.2571 22.1389H95.7096V26.623H77.773V10.9285H97.9517L93.4676 15.4126H82.2571V16.5337H93.4676V21.0178H82.2571V22.1389ZM97.749 18.7757V13.7311L102.233 9.24689V18.7757C102.233 19.7025 102.562 20.4947 103.22 21.1524C103.877 21.81 104.67 22.1389 105.596 22.1389H107.838C108.765 22.1389 109.557 21.81 110.215 21.1524C110.873 20.4947 111.202 19.7025 111.202 18.7757V10.9285H115.686V18.7757C115.686 20.9431 114.92 22.7928 113.388 24.3249C111.855 25.857 110.006 26.623 107.838 26.623H105.596C103.429 26.623 101.579 25.857 100.047 24.3249C98.5151 22.7928 97.749 20.9431 97.749 18.7757ZM130.617 10.9285C132.007 10.9285 133.196 11.4217 134.182 12.4082C135.169 13.3947 135.662 14.5831 135.662 15.9731C135.662 17.3632 135.169 18.5515 134.182 19.5381C133.621 20.0986 132.994 20.4984 132.299 20.7376L138.184 26.623H131.839L122.209 16.9933V28.3046L117.725 23.8204V10.9285H130.617ZM122.209 15.4126V16.5337H130.617C130.774 16.5337 130.905 16.4813 131.009 16.3767C131.122 16.2646 131.178 16.1301 131.178 15.9731C131.178 15.8162 131.122 15.6854 131.009 15.5808C130.905 15.4687 130.774 15.4126 130.617 15.4126H122.209ZM147.791 10.9285C149.958 10.9285 151.808 11.6945 153.34 13.2266C154.872 14.7587 155.638 16.6084 155.638 18.7757V23.8204L151.154 28.3046V23.2599H142.185V26.623H137.701V18.7757C137.701 16.6084 138.467 14.7587 139.999 13.2266C141.531 11.6945 143.381 10.9285 145.548 10.9285H147.791ZM151.154 18.7757C151.154 17.849 150.825 17.0568 150.167 16.3991C149.51 15.7415 148.717 15.4126 147.791 15.4126H145.548C144.622 15.4126 143.83 15.7415 143.172 16.3991C142.514 17.0568 142.185 17.849 142.185 18.7757H151.154ZM177.856 10.9285L173.372 15.4126H162.161V16.5337H175.614V21.0178H162.161V28.3046L157.677 23.8204V10.9285H177.856ZM182.138 26.623H177.653V13.7311L182.138 9.24689V26.623Z" fill="white"/>
<defs>
<linearGradient id="paint0_linear_32_1506" x1="4.96823" y1="21.7899" x2="4.96823" y2="9.00952" gradientUnits="userSpaceOnUse">
<stop stop-color="#A75EFF"/>
<stop offset="1" stop-color="#8741DB"/>
</linearGradient>
<linearGradient id="paint1_linear_32_1506" x1="42.0445" y1="17.3044" x2="42.0445" y2="30.0847" gradientUnits="userSpaceOnUse">
<stop stop-color="#A75EFF"/>
<stop offset="1" stop-color="#8741DB"/>
</linearGradient>
</defs>
</svg>
