<svg width="45" height="45" viewBox="0 0 45 45" fill="none" xmlns="http://www.w3.org/2000/svg">
<path d="M13.8035 12.4225H19.3248M13.8035 22.0848H30.3673M13.8035 27.6061H30.3673M13.8035 33.1273H19.3248M11.0429 40.0289H33.128C33.8601 40.0289 34.5623 39.7381 35.08 39.2203C35.5978 38.7026 35.8886 38.0005 35.8886 37.2683V6.90126C35.8886 6.1691 35.5978 5.46692 35.08 4.9492C34.5623 4.43148 33.8601 4.14063 33.128 4.14062H11.0429C10.3107 4.14063 9.60852 4.43148 9.0908 4.9492C8.57308 5.46692 8.28223 6.1691 8.28223 6.90126V37.2683C8.28223 38.0005 8.57308 38.7026 9.0908 39.2203C9.60852 39.7381 10.3107 40.0289 11.0429 40.0289Z" stroke="white" stroke-width="2.41958" stroke-linecap="round" stroke-linejoin="round"/>
<path d="M30.3679 13.1127C30.7491 13.1127 31.0581 12.8037 31.0581 12.4226C31.0581 12.0414 30.7491 11.7324 30.3679 11.7324C29.9867 11.7324 29.6777 12.0414 29.6777 12.4226C29.6777 12.8037 29.9867 13.1127 30.3679 13.1127Z" fill="white" stroke="white" stroke-width="2.41958"/>
</svg>
